<?xml version="1.0" encoding="UTF-8" standalone="no"?>
<svg
   xmlns:dc="http://purl.org/dc/elements/1.1/"
   xmlns:cc="http://creativecommons.org/ns#"
   xmlns:rdf="http://www.w3.org/1999/02/22-rdf-syntax-ns#"
   xmlns:svg="http://www.w3.org/2000/svg"
   xmlns="http://www.w3.org/2000/svg"
   xmlns:sodipodi="http://sodipodi.sourceforge.net/DTD/sodipodi-0.dtd"
   xmlns:inkscape="http://www.inkscape.org/namespaces/inkscape"
   inkscape:export-ydpi="96"
   inkscape:export-xdpi="96"
   inkscape:export-filename="C:\Users\migue\Desktop\zach\public\images\logo.png"
   inkscape:version="1.0 (4035a4fb49, 2020-05-01)"
   sodipodi:docname="logo.svg"
   id="svg4"
   viewBox="0 0 258 281"
   version="1">
  <metadata
     id="metadata10">
    <rdf:RDF>
      <cc:Work
         rdf:about="">
        <dc:format>image/svg+xml</dc:format>
        <dc:type
           rdf:resource="http://purl.org/dc/dcmitype/StillImage" />
        <dc:title></dc:title>
      </cc:Work>
    </rdf:RDF>
  </metadata>
  <defs
     id="defs8" />
  <sodipodi:namedview
     inkscape:current-layer="svg4"
     inkscape:window-maximized="1"
     inkscape:window-y="-8"
     inkscape:window-x="-8"
     inkscape:cy="162.40946"
     inkscape:cx="216.82386"
     inkscape:zoom="4.2778702"
     showgrid="false"
     id="namedview6"
     inkscape:window-height="1017"
     inkscape:window-width="1920"
     inkscape:pageshadow="2"
     inkscape:pageopacity="0"
     guidetolerance="10"
     gridtolerance="10"
     objecttolerance="10"
     borderopacity="1"
     bordercolor="#666666"
     pagecolor="#ffffff" />
  <path
     inkscape:export-ydpi="96"
     inkscape:export-xdpi="96"
     inkscape:export-filename="C:\Users\migue\Desktop\zach\public\images\zach2.png"
     sodipodi:nodetypes="ccccccscccccccscccccccccccccccsc"
     style="fill:#ffc107;fill-opacity:1;stroke:#ffc107;stroke-opacity:1"
     id="path2"
     class="path"
     d="m 38,196 c 0,8 -3,18 2,23 2,13 104,55 105,52 0,0 32,14 35,0 3,-15 33,-56 32,-101 -11,-15 -18,-23 -18,-39 -2,-5 -3,-2 -5,-4 -2,-2 -4,29 -18,31 -13,2 -40,-1 -51,-10 -11,-10 -7,-42 -7,-42 l -89,25 -9,-6 c 0,0 67,-27 98,-31 31,-5 67,14 68,17 0,3 10,8 17,7 7,-1 13,-4 21,-1 C 224,97 178,53 131,71 85,89 -4,124 0,130 10,98 2,72 18,55 33,39 39,21 83,4 128,-13 207.49588,26.669412 216.16529,30 164.16529,26 124,55 91,70 130,52 173,32 212,31 c 39,0 58,58 38,74 -21,15 -22,14 -22,14 9,0 14,8 21,11 4.16548,0.86781 3.2283,43.1309 -11,43 -4,1 -23,-2 -23,-2 -10,88 -24,60 -28,103 -3,7 -36,8 -47,6 -11,-1 -103,-55 -104,-57 -4,-8 2,-27 2,-27 z"
     stroke-width="4"
     stroke-miterlimit="10"
     stroke="#000"
     fill="rgba(255,255,255,0.0)" />
</svg>
